<svg width="134" height="214" viewBox="0 0 134 214" fill="none" xmlns="http://www.w3.org/2000/svg">
<path d="M117.225 213.322C111.535 213.322 107.339 211.695 104.638 208.44C101.959 205.163 100.619 200.137 100.619 193.362V184.926C100.619 178.195 101.97 173.191 104.671 169.914C107.395 166.637 111.579 164.998 117.225 164.998C122.739 164.998 126.868 166.459 129.614 169.382C132.359 172.305 133.754 176.955 133.799 183.331L122.307 184.959C122.307 182.302 122.13 180.209 121.776 178.682C121.443 177.154 120.923 176.069 120.215 175.427C119.506 174.785 118.587 174.464 117.458 174.464C115.886 174.464 114.712 175.095 113.937 176.357C113.185 177.619 112.808 179.523 112.808 182.069V196.152C112.808 198.72 113.196 200.635 113.971 201.897C114.746 203.159 115.919 203.79 117.491 203.79C119.063 203.79 120.248 202.938 121.045 201.233C121.842 199.528 122.263 196.605 122.307 192.465L133.998 194.856C133.887 201.255 132.415 205.938 129.581 208.905C126.746 211.85 122.628 213.322 117.225 213.322Z" fill="black"/>
<path d="M67.0234 212.392V165.895H84.2608C89.132 165.895 92.7522 167.013 95.1214 169.249C97.5127 171.485 98.7083 174.895 98.7083 179.479V182.933C98.7083 187.45 97.5127 190.815 95.1214 193.029C92.7522 195.243 89.132 196.351 84.2608 196.351H79.1128V212.392H67.0234ZM83.2644 187.051C84.5487 187.051 85.4897 186.741 86.0875 186.121C86.7075 185.501 87.0175 184.549 87.0175 183.265V179.08C87.0175 177.774 86.7075 176.799 86.0875 176.157C85.4897 175.515 84.5487 175.194 83.2644 175.194H79.1128V187.051H83.2644Z" fill="black"/>
<path d="M64.4492 212.392H37.2812V165.895H63.8514V175.759H49.3707V184.494H62.6557V193.029H49.3707V202.495H64.4492V212.392Z" fill="black"/>
<path d="M0 212.392L9.86416 189.143L0.464977 165.895H13.8165L16.6063 174.231C17.0492 175.471 17.4367 177.021 17.7688 178.881H18.4662C18.8205 177.087 19.208 175.526 19.6287 174.198L22.2857 165.895H35.1058L25.4741 187.649L35.7036 212.392H22.1196L18.8316 201.831C18.4995 200.834 18.1563 199.45 17.802 197.679H17.0713C16.8278 199.207 16.5067 200.613 16.1081 201.897L12.8865 212.392H0Z" fill="black"/>
<path d="M53.4875 100.937C53.6876 101.134 53.8981 101.328 54.1138 101.52H54.1167C59.6551 106.664 67.0804 109.817 75.2463 109.817C75.6751 109.817 76.1015 109.804 76.5277 109.786L30.2709 155.933L30.1302 122.514C30.1042 117.637 32.0382 112.946 35.5001 109.49L48.7967 96.2253L53.4875 100.937ZM43.357 90.5442H43.3594L0.540854 133.261L0.400648 99.6758C0.374675 94.7729 2.31591 90.0644 5.7959 86.5926L22.5957 69.8328L43.357 90.5442ZM33.9099 36.3507C42.0057 36.3508 49.7765 39.558 55.5202 45.2621L59.809 49.0996L81.2219 70.6043C81.422 70.8013 81.6325 70.9958 81.8482 71.1877L81.8458 71.1848C87.3842 76.3289 94.8094 79.482 102.975 79.4821C104.496 79.4821 105.99 79.3704 107.454 79.1604C104.582 82.0203 94.7262 91.837 91.584 94.9743C81.5987 104.943 68.1126 103.911 59.1539 94.9743C53.8526 89.6856 0.435693 36.3828 0.406022 36.3531L33.9099 36.3507ZM55.8246 0C63.9023 7.93824e-06 71.6396 3.21246 77.3626 8.94257L86.0925 17.6751C91.1398 13.6407 97.5413 11.2244 104.512 11.2244C112.86 11.2244 120.391 14.6883 125.756 20.2498H134V40.5103H133.997C133.997 40.5568 134 40.6008 134 40.6473C134 40.6939 133.997 40.7381 133.997 40.7847C133.997 41.3162 133.979 41.8454 133.948 42.3691C133.054 57.8197 120.217 70.0731 104.509 70.0731C96.7457 70.073 89.6868 67.0758 84.4213 62.1832C84.216 62.0018 84.0159 61.8178 83.8263 61.6286L22.4614 0H55.8246Z" fill="black"/>
</svg>
